<?xml version="1.0" standalone="no"?>
<!DOCTYPE svg PUBLIC "-//W3C//DTD SVG 20010904//EN"
 "http://www.w3.org/TR/2001/REC-SVG-20010904/DTD/svg10.dtd">
<svg version="1.0" xmlns="http://www.w3.org/2000/svg"
 width="302.000000pt" height="302.000000pt" viewBox="0 0 302.000000 302.000000"
 preserveAspectRatio="xMidYMid meet">
<metadata>
Created by potrace 1.14, written by Peter Selinger 2001-2017
</metadata>
<g transform="translate(0.000000,302.000000) scale(0.100000,-0.100000)"
fill="#000000" stroke="none">
<path d="M14 2805 c25 -518 139 -962 364 -1410 82 -165 84 -166 97 -44 5 44 2
100 -9 169 -10 57 -14 117 -10 134 16 79 93 166 254 285 l95 70 133 -139 c200
-210 352 -299 537 -316 133 -11 306 47 440 149 58 44 179 164 262 259 l40 48
89 -63 c109 -76 224 -189 248 -241 16 -35 18 -52 10 -135 -10 -120 -9 -268 3
-300 8 -21 16 -9 75 105 229 446 344 891 374 1444 l6 125 -1507 0 -1508 0 7
-140z m599 -250 c-56 -59 -64 -89 -31 -121 23 -24 26 -24 72 -12 44 12 51 11
86 -10 97 -55 146 5 79 98 l-31 43 33 -7 c56 -10 99 -79 99 -157 0 -22 9 -31
48 -50 44 -22 48 -27 55 -73 11 -69 -4 -87 -127 -145 -228 -110 -412 -263
-479 -401 -23 -48 -40 -99 -45 -140 l-8 -65 -24 120 c-32 161 -33 336 -3 413
25 62 103 190 132 216 27 24 26 32 -2 40 -12 3 -38 21 -57 41 -40 42 -34 55
33 62 l46 5 -1 40 c-1 53 25 86 92 121 75 38 83 34 33 -18z m1801 19 c9 -8 19
-26 22 -39 4 -16 23 -32 59 -50 83 -40 136 -124 183 -293 25 -91 27 -109 27
-302 0 -113 -4 -236 -9 -275 l-9 -70 -13 62 c-19 93 -69 178 -154 264 -86 86
-231 187 -317 219 -68 25 -143 67 -143 80 0 5 -25 16 -55 25 -64 18 -78 37
-79 113 l-1 55 85 24 c47 14 89 31 93 39 11 20 84 59 147 79 35 11 67 30 86
51 35 37 55 42 78 18z"/>
<path d="M822 1407 c-30 -106 -99 -245 -166 -331 l-54 -69 51 -71 c211 -299
565 -659 820 -834 l44 -31 96 72 c257 193 509 451 722 737 42 58 80 110 82
117 3 7 -18 43 -46 80 -65 87 -134 225 -164 332 -19 65 -25 78 -30 60 -20 -74
1 -176 60 -293 l35 -69 -23 -18 c-61 -46 -221 -62 -349 -35 -36 8 -66 13 -68
11 -6 -5 90 -123 142 -175 31 -30 56 -57 56 -61 0 -10 -98 10 -180 37 -131 44
-232 117 -311 223 l-25 34 -51 -65 c-84 -107 -226 -188 -388 -221 -38 -8 -72
-12 -74 -10 -3 2 22 32 56 66 65 67 146 167 140 174 -2 2 -33 -3 -68 -12 -93
-22 -212 -19 -286 6 -88 29 -92 37 -55 107 45 84 72 174 71 234 -1 92 -12 93
-37 5z"/>
</g>
</svg>
